{"title":"World War Z (2013) BDRip (Rus)","uid":8902977,"size":785858560,"categoryP":"video","categoryS":"movies","magnet":"?xt=urn:btih:89162f2715bcc146b2827a8809e6befd52f6c56b&amp;dn=World+War+Z+%282013%29+BDRip+%28Rus%29&amp;tr=udp%3A%2F%2Ftracker.openbittorrent.com%3A80&amp;tr=udp%3A%2F%2Fopen.demonii.com%3A1337&amp;tr=udp%3A%2F%2Ftracker.coppersurfer.tk%3A6969&amp;tr=udp%3A%2F%2Fexodus.desync.com%3A6969","seeders":1,"leechers":0,"uploader":"yfjfrj","files":1,"time":1378846963,"description":"General\nComplete name                            : C:UsersIvanDesktopVoyna_mirov_Z_HDRip_dub_745.avi\nFormat                                   : AVI\nFormat/Info                              : Audio Video Interleave\nFile size                                : 749 MiB\nDuration                                 : 2h 3mn\nOverall bit rate                         : 851 Kbps\nWriting application                      : VirtualDubMod 1.5.10.2 (build 2540/release)\nWriting library                          : VirtualDubMod build 2540/release\n\nVideo\nID                                       : 0\nFormat                                   : MPEG-4 Visual\nFormat profile                           : Advanced Simple@L5\nFormat settings, BVOP                    : 1\nFormat settings, QPel                    : No\nFormat settings, GMC                     : No warppoints\nFormat settings, Matrix                  : Custom\nCodec ID                                 : XVID\nCodec ID/Hint                            : XviD\nDuration                                 : 2h 3mn\nBit rate                                 : 714 Kbps\nWidth                                    : 640 pixels\nHeight                                   : 272 pixels\nDisplay aspect ratio                     : 2.35:1\nFrame rate                               : 23.976 fps\nColor space                              : YUV\nChroma subsampling                       : 4:2:0\nBit depth                                : 8 bits\nScan type                                : Progressive\nCompression mode                         : Lossy\nBits/(Pixel*Frame)                       : 0.171\nStream size                              : 629 MiB (84%)\nWriting library                          : XviD 73\n\nAudio\nID                                       : 1\nFormat                                   : MPEG Audio\nFormat version                           : Version 1\nFormat profile                           : Layer 3\nCodec ID                                 : 55\nCodec ID/Hint                            : MP3\nDuration                                 : 2h 3mn\nBit rate mode                            : Constant\nBit rate                                 : 128 Kbps\nChannel(s)                               : 2 channels\nSampling rate                            : 48.0 KHz\nCompression mode                         : Lossy\nStream size                              : 113 MiB (15%)\nAlignment                                : Aligned on interleaves\nInterleave, duration                     : 42 ms (1.00 video frame)\nInterleave, preload duration             : 504 ms\nWriting library                          : LAME3.99r\nEncoding settings                        : -m s -V 4 -q 2 -lowpass 17 -b 128\n","torrent":{"xt":"urn:btih:89162f2715bcc146b2827a8809e6befd52f6c56b","amp;dn":"World+War+Z+%282013%29+BDRip+%28Rus%29","amp;tr":["udp%3A%2F%2Ftracker.openbittorrent.com%3A80","udp%3A%2F%2Fopen.demonii.com%3A1337","udp%3A%2F%2Ftracker.coppersurfer.tk%3A6969","udp%3A%2F%2Fexodus.desync.com%3A6969"],"infoHash":"89162f2715bcc146b2827a8809e6befd52f6c56b","infoHashBuffer":{"type":"Buffer","data":[137,22,47,39,21,188,193,70,178,130,122,136,9,230,190,253,82,246,197,107]},"announce":[],"urlList":[]}}